# xmcd
#
# Track frame offsets:
#	150
#	18625
#	37675
#	64628
#	93398
#	129640
#	178010
#
# Disc length: 2692 seconds
#
# Revision: 0
# Processed by: cddbd v1.5.2PL0 Copyright (c) Steve Scherf et al.
# Submitted via: audiograbber 1.83.01
#
DISCID=530a8207
DTITLE=Depeche Mode - Behind The Wheel [EP]
DYEAR=1992
DGENRE=New Wave
TTITLE0=Behind The Wheel [remix]
TTITLE1=Route 66
TTITLE2=Behind The Wheel [Shep Pettibone remix]
TTITLE3=Route 66 [Beatmasters mix]
TTITLE4=Behind The Wheel [Beatmasters mix]
TTITLE5=Route 66 [casualty mix]
TTITLE6=Behind The Wheel [L.P. mix]
EXTD=
EXTT0=
EXTT1=
EXTT2=
EXTT3=
EXTT4=
EXTT5=
EXTT6=
PLAYORDER=
